<?xml version="1.0" encoding="UTF-8" standalone="no"?>
<svg
   version="1.1"
   id="Layer_1"
   x="0px"
   y="0px"
   width="500.50577"
   height="573.12109"
   viewBox="0 0 500.54501 573.12109"
   sodipodi:docname="se_fav.svg"
   inkscape:version="1.1.2 (b8e25be833, 2022-02-05)"
   xmlns:inkscape="http://www.inkscape.org/namespaces/inkscape"
   xmlns:sodipodi="http://sodipodi.sourceforge.net/DTD/sodipodi-0.dtd"
   xmlns="http://www.w3.org/2000/svg"
   xmlns:svg="http://www.w3.org/2000/svg">
  <defs
     id="defs45" />
  <sodipodi:namedview
     id="namedview43"
     pagecolor="#ffffff"
     bordercolor="#666666"
     borderopacity="1.0"
     inkscape:pageshadow="2"
     inkscape:pageopacity="0.0"
     inkscape:pagecheckerboard="0"
     showgrid="false"
     inkscape:zoom="0.46001568"
     inkscape:cx="-440.20239"
     inkscape:cy="104.34427"
     inkscape:window-width="1920"
     inkscape:window-height="1017"
     inkscape:window-x="-1928"
     inkscape:window-y="352"
     inkscape:window-maximized="1"
     inkscape:current-layer="Layer_1" />
  <style
     type="text/css"
     id="style28">
	.st0{fill-rule:evenodd;clip-rule:evenodd;fill:#6DA5D3;}
	.st1{fill-rule:evenodd;clip-rule:evenodd;fill:#006192;}
	.st2{fill-rule:evenodd;clip-rule:evenodd;fill:none;stroke:#000000;stroke-width:0.5669;stroke-miterlimit:22.9256;}
</style>
  <path
     class="st0"
     d="m 345.896,328.89453 h 1.032 c 5.507,-0.689 9.408,-2.983 11.702,-6.884 1.262,-2.065 1.951,-4.359 1.951,-7.113 0,-2.524 -0.574,-5.162 -1.607,-7.916 l -6.195,-14.455 c -0.229,-0.23 -7.113,-17.094 -7.113,-17.094 -0.344,-0.918 -0.344,-1.721 -0.344,-2.868 0,-2.065 0.574,-4.589 1.95,-6.54 2.869,-3.9 8.49,-5.851 16.406,-5.851 h 30.861 c 7.916,0 13.538,1.951 16.406,5.851 1.262,1.721 1.95,4.016 1.95,6.31 l -0.344,2.983 -7.113,16.979 -6.195,14.456 c 0,0.229 -1.721,4.015 -1.721,8.145 0.229,4.016 1.95,7.113 1.95,7.113 2.295,3.901 6.196,6.195 11.702,6.884 h 1.033 88.223 v 244.249 H 256.41 v -90.173 l -0.229,-1.607 c -1.262,-5.965 -4.36,-8.833 -6.884,-10.21 -4.015,-2.065 -8.948,-2.065 -14.685,0 l -14.455,6.31 -17.094,7.113 c -2.524,0.688 -6.539,0.573 -9.522,-1.721 -3.671,-2.639 -5.622,-8.49 -5.622,-16.291 v -30.861 c 0,-7.916 1.951,-13.538 5.622,-16.406 2.983,-2.294 7.113,-2.524 9.522,-1.606 l 16.979,7.113 14.456,6.195 c 5.851,2.065 10.784,2.065 14.799,0 2.524,-1.377 5.622,-4.245 6.884,-10.096 0,-0.229 0.229,-1.721 0.229,-1.721 v -90.174 h 89.486 z"
     id="path32" />
  <path
     class="st1"
     d="m 345.896,68.927531 h 1.032 c 5.507,-0.918 9.408,-3.213 11.702,-7.113 1.262,-1.951 1.951,-4.36 1.951,-7.113 0,-2.295 -0.574,-4.933 -1.607,-7.916 l -6.195,-14.456 -7.113,-17.094 c -0.344,-0.688 -0.344,-1.72 -0.344,-2.868 0,-2.065 0.574,-4.5890001 1.95,-6.5390001 2.869,-3.671 8.49,-5.85100002 16.406,-5.85100002 h 30.861 c 7.916,0 13.538,2.06500002 16.406,5.85100002 1.721,2.524 1.95,5.1630001 1.95,6.5390001 l -0.344,2.868 -6.883,16.75 -6.31,14.8 c 0,0 -1.721,3.671 -1.721,7.916 0,4.359 1.95,7.228 1.95,7.228 2.295,3.671 6.195,5.965 11.702,6.883 h 1.033 88.223 V 312.25953 h -85.929 c 0.688,-1.721 5.622,-13.079 5.622,-13.079 0.229,-0.574 7.571,-18.93 7.571,-18.93 0.689,-2.294 1.262,-4.933 1.262,-7.801 0,-5.277 -1.376,-11.128 -5.277,-16.406 -4.245,-5.851 -12.734,-12.505 -29.828,-12.505 H 362.99 c -16.98,0 -25.469,6.654 -29.599,12.505 -3.901,5.278 -5.278,11.129 -5.278,16.406 0,2.868 0.345,5.507 1.033,7.801 0.229,0 7.801,18.93 7.801,18.93 0,0 5.163,11.817 5.622,13.193 l -86.159,-0.229 v -89.715 -0.918 c -0.688,-5.507 -2.983,-9.407 -6.883,-11.702 -4.016,-2.524 -9.178,-2.524 -15.029,-0.229 l -14.456,6.195 c -0.344,0 -17.323,7.113 -17.323,7.113 -2.295,0.688 -6.31,0.573 -9.408,-1.721 -3.671,-2.639 -5.621,-8.49 -5.621,-16.406 v -30.746 c 0,-7.916 1.95,-13.538 5.621,-16.406 2.983,-2.294 7.113,-2.294 9.408,-1.606 l 17.323,7.113 14.341,6.195 c 5.966,2.295 11.128,2.065 15.144,-0.344 3.9,-2.294 6.195,-6.195 6.883,-11.702 v -1.032 -87.535999 h 89.486 z"
     id="path34" />
  <path
     class="st1"
     d="m 88.797,270.72853 c 0,-1.032 0.344,-3.327 1.721,-5.277 2.294,-3.213 7.457,-4.819 14.455,-4.819 h 30.861 c 7.228,0 12.39,1.606 14.685,4.819 1.032,1.377 1.606,3.327 1.606,5.277 l -0.344,2.524 -6.884,16.635 -6.195,14.456 c 0,0.229 -1.721,4.589 -1.721,8.833 -0.229,4.36 1.951,8.146 2.065,8.261 2.639,4.359 7.113,7.113 13.194,7.916 h 1.262 86.158 v 87.535 c -8.26,-3.671 -26.845,-11.473 -31.779,-13.079 -6.309,-1.95 -16.061,-1.95 -24.206,4.245 -5.622,4.245 -12.506,12.735 -12.506,29.599 v 30.861 c 0,16.979 6.884,25.584 12.506,29.829 8.145,5.965 17.782,5.965 24.206,4.015 4.934,-1.606 23.519,-9.407 31.779,-12.849 v 83.52 H 0 v -83.52 c 8.26,3.556 26.845,11.243 31.893,12.849 6.195,1.95 15.832,1.95 24.207,-4.015 5.622,-4.245 12.505,-12.85 12.505,-29.829 v -30.861 c 0,-16.979 -6.883,-25.469 -12.505,-29.599 -8.26,-6.195 -18.012,-6.195 -24.207,-4.245 -5.162,1.606 -23.633,9.408 -31.893,13.079 v -87.535 h 87.42 1.033 c 6.31,-0.918 10.899,-3.557 13.537,-7.916 1.377,-2.524 2.295,-3.327 2.065,-8.261 -0.229,-4.818 -1.721,-8.604 -1.721,-8.604 l -6.195,-14.455 -7.113,-17.094 c 0.115,0 -0.229,-2.295 -0.229,-2.295 z"
     id="path36" />
</svg>
